<?xml version="1.0" encoding="UTF-8"?>
<svg id="Layer_2" data-name="Layer 2" xmlns="http://www.w3.org/2000/svg" viewBox="0 0 332.71 220.34">
  <defs>
    <style>
      .cls-1 {
        fill: #fff;
      }

      .cls-2 {
        fill: #75aadb;
      }

      .cls-3 {
        fill: #231f20;
        font-family: CourierNewPS-ItalicMT, 'Courier New';
        font-size: 40px;
        font-style: italic;
      }
    </style>
  </defs>
  <g id="Layer_1-2" data-name="Layer 1">
    <g>
      <circle class="cls-2" cx="110.17" cy="110.17" r="110.17"/>
      <path class="cls-1" d="m147.88,145.33h11.95v9.28h-18.24l-30.23-45.31h-16.11v36.03h15.75v9.28h-39.65v-9.28h13.62v-79.84l-13.62-1.67v-8.78c5.16,1.17,9.64,1.99,15.26,1.99,8.46,0,17.11-1.99,25.57-1.99,16.43,0,31.69,7.47,31.69,25.71,0,14.12-8.46,23.08-21.59,26.89l25.61,37.7Zm-52.63-44.99l8.64.18c21.09.32,29.2-7.79,29.2-18.6,0-12.62-9.14-17.6-20.73-17.6-5.48,0-11.13.5-17.11,1.17v34.85Z"/>
      <text class="cls-3" transform="translate(140.68 201.05)"><tspan x="0" y="0">Workshop</tspan></text>
    </g>
  </g>
</svg>