<?xml version="1.0" encoding="UTF-8"?>
<svg id="Layer_2" data-name="Layer 2" xmlns="http://www.w3.org/2000/svg" viewBox="0 0 287.8 343.95">
  <defs>
    <style>
      .cls-1 {
        fill: #fff;
      }

      .cls-2 {
        fill: #231f20;
        font-family: CourierNewPS-ItalicMT, 'Courier New';
        font-size: 48px;
        font-style: italic;
      }

      .cls-3 {
        fill: #75aadb;
      }
    </style>
  </defs>
  <g id="Layer_1-2" data-name="Layer 1">
    <g>
      <circle class="cls-3" cx="143.9" cy="143.9" r="143.9"/>
      <path class="cls-1" d="m193.15,189.82h15.61v12.12h-23.83l-39.48-59.18h-21.04v47.05h20.58v12.12h-51.79v-12.12h17.79v-104.28l-17.79-2.18v-11.47c6.74,1.53,12.59,2.6,19.93,2.6,11.05,0,22.34-2.6,33.4-2.6,21.46,0,41.39,9.75,41.39,33.58,0,18.44-11.05,30.15-28.19,35.12l33.44,49.24Zm-68.74-58.76l11.29.23c27.54.42,38.13-10.17,38.13-24.29,0-16.49-11.94-22.99-27.08-22.99-7.15,0-14.54.65-22.34,1.53v45.52Z"/>
      <text class="cls-2" transform="translate(28.68 330.59)"><tspan x="0" y="0">Workshop</tspan></text>
    </g>
  </g>
</svg>